<?xml version="1.0" encoding="utf-8"?>
<!-- Svg Vector Icons : http://www.onlinewebfonts.com/icon -->
<!DOCTYPE svg PUBLIC "-//W3C//DTD SVG 1.1//EN" "http://www.w3.org/Graphics/SVG/1.1/DTD/svg11.dtd">
<svg version="1.1" xmlns="http://www.w3.org/2000/svg" xmlns:xlink="http://www.w3.org/1999/xlink" x="0px" y="0px" viewBox="0 0 1000 1000" enable-background="new 0 0 1000 1000" xml:space="preserve">
<metadata> Svg Vector Icons : http://www.onlinewebfonts.com/icon </metadata>
<g><path d="M500.1,990C770.6,990,990,770.6,990,500c0-270.6-219.4-490-489.9-490C229.4,10,10,229.4,10,500C10,770.6,229.4,990,500.1,990z M500.1,45C751.3,45,955,248.7,955,500c0,251.3-203.7,455-454.9,455C248.7,955,45,751.3,45,500C45,248.7,248.7,45,500.1,45z"/><path d="M187.6,655.2c2,4.8,6.8,8,12,8h25.5c3.5,0,6.8-1.4,9.2-3.8L500,393.8l265.6,265.7c2.4,2.4,5.8,3.8,9.3,3.8h25.5c5.2,0,10-3.2,12-8c2-4.9,0.9-10.4-2.8-14.2L509.2,340.6c-2.5-2.5-5.8-3.8-9.2-3.8c-3.3,0-6.7,1.2-9.2,3.8L190.4,641C186.7,644.7,185.6,650.3,187.6,655.2z"/></g>
</svg>